<svg xmlns="http://www.w3.org/2000/svg" xmlns:xlink="http://www.w3.org/1999/xlink" viewBox="0 0 944.78 242.71"><defs><style>.cls-1{fill:#aaa;}.cls-2{fill:#333;}.cls-3{fill:url(#linear-gradient);}.cls-4{fill:url(#linear-gradient-2);}.cls-5{fill:url(#linear-gradient-3);}.cls-6{fill:url(#linear-gradient-4);}.cls-7{fill:url(#linear-gradient-5);}.cls-8{fill:url(#linear-gradient-6);}</style><linearGradient id="linear-gradient" x1="189.5" y1="180.13" x2="189.5" y2="111.52" gradientUnits="userSpaceOnUse"><stop offset="0" stop-color="#c3161c"/><stop offset="0.25" stop-color="#c51a1c"/><stop offset="0.49" stop-color="#cd251d"/><stop offset="0.72" stop-color="#d9381f"/><stop offset="0.95" stop-color="#eb5221"/><stop offset="1" stop-color="#f05a22"/></linearGradient><linearGradient id="linear-gradient-2" x1="97.87" y1="19.84" x2="218.88" y2="91.03" gradientUnits="userSpaceOnUse"><stop offset="0" stop-color="#8bc53f"/><stop offset="0.12" stop-color="#87c445"/><stop offset="0.28" stop-color="#7ac254"/><stop offset="0.45" stop-color="#65be6f"/><stop offset="0.64" stop-color="#48b993"/><stop offset="0.84" stop-color="#24b3c1"/><stop offset="1" stop-color="#00adee"/></linearGradient><linearGradient id="linear-gradient-3" x1="106" y1="200" x2="211" y2="200" gradientUnits="userSpaceOnUse"><stop offset="0" stop-color="#f05a22"/><stop offset="0.04" stop-color="#f16220"/><stop offset="0.22" stop-color="#f6841a"/><stop offset="0.41" stop-color="#fa9f15"/><stop offset="0.6" stop-color="#fdb211"/><stop offset="0.79" stop-color="#febd0f"/><stop offset="1" stop-color="#ffc10e"/></linearGradient><linearGradient id="linear-gradient-4" x1="17.43" y1="76.34" x2="108.6" y2="21.77" gradientUnits="userSpaceOnUse"><stop offset="0" stop-color="#f05a22"/><stop offset="0.33" stop-color="#de3f20"/><stop offset="0.76" stop-color="#ca211d"/><stop offset="1" stop-color="#c3161c"/></linearGradient><linearGradient id="linear-gradient-5" x1="10.73" y1="162.99" x2="113.28" y2="222.96" gradientUnits="userSpaceOnUse"><stop offset="0" stop-color="#00adee"/><stop offset="0.16" stop-color="#24b3c1"/><stop offset="0.36" stop-color="#48b993"/><stop offset="0.55" stop-color="#65be6f"/><stop offset="0.72" stop-color="#7ac254"/><stop offset="0.88" stop-color="#87c445"/><stop offset="1" stop-color="#8bc53f"/></linearGradient><linearGradient id="linear-gradient-6" x1="21.5" y1="175.46" x2="21.5" y2="67.51" gradientUnits="userSpaceOnUse"><stop offset="0" stop-color="#eb008b"/><stop offset="0.2" stop-color="#e70089"/><stop offset="0.38" stop-color="#dc0084"/><stop offset="0.56" stop-color="#c9007a"/><stop offset="0.73" stop-color="#ae006d"/><stop offset="0.9" stop-color="#8c005d"/><stop offset="1" stop-color="#760052"/></linearGradient></defs><title>gh-logo-sm-w-h_1</title><g id="Layer_2" data-name="Layer 2"><g id="Layer_8" data-name="Layer 8"><path class="cls-1" d="M286.38,165.18h22.4v5.88H292.85v6.26h14v5.88h-14v11.39h-6.47Z"/><path class="cls-1" d="M324.22,182V165.18h6.47v16.64c0,4.79,2.4,7.27,6.35,7.27s6.35-2.4,6.35-7.06V165.18h6.47v16.6c0,8.91-5,13.28-12.9,13.28S324.22,190.64,324.22,182Z"/><path class="cls-1" d="M367.58,165.18h6.47v23.53h14.67v5.88H367.58Z"/><path class="cls-1" d="M403.88,165.18h6.47v23.53H425v5.88H403.88Z"/><path class="cls-1" d="M439.22,190.31l3.82-4.58c2.65,2.19,5.42,3.57,8.78,3.57,2.65,0,4.25-1.05,4.25-2.77v-.08c0-1.64-1-2.48-5.93-3.74-5.92-1.51-9.75-3.15-9.75-9v-.08c0-5.34,4.29-8.87,10.3-8.87a17,17,0,0,1,10.93,3.74l-3.36,4.87c-2.61-1.81-5.17-2.9-7.65-2.9s-3.78,1.13-3.78,2.56v.08c0,1.93,1.26,2.56,6.35,3.87,6,1.55,9.33,3.7,9.33,8.82v.08c0,5.84-4.45,9.12-10.8,9.12A18.72,18.72,0,0,1,439.22,190.31Z"/><path class="cls-1" d="M485.52,171.14h-9v-6h24.37v6h-9v23.45h-6.47Z"/><path class="cls-1" d="M522.81,165h6l12.61,29.63h-6.77l-2.69-6.6H519.49l-2.69,6.6h-6.6Zm6.81,17.31-3.91-9.54-3.91,9.54Z"/><path class="cls-1" d="M553.42,180v-.08a15,15,0,0,1,15.34-15.21c5.55,0,8.87,1.85,11.6,4.54L576.24,174c-2.27-2.06-4.58-3.32-7.52-3.32-5,0-8.53,4.12-8.53,9.16v.08c0,5,3.49,9.25,8.53,9.25,3.36,0,5.42-1.34,7.73-3.45l4.12,4.16a15,15,0,0,1-12.06,5.25A14.85,14.85,0,0,1,553.42,180Z"/><path class="cls-1" d="M596.12,165.18h6.47V178l11.85-12.86h7.94l-12,12.48,12.52,16.94h-7.77L606,182.07l-3.4,3.53v9h-6.47Z"/><path class="cls-1" d="M671.41,165h6L690,194.59h-6.77l-2.69-6.6H668.09l-2.69,6.6h-6.6Zm6.81,17.31-3.91-9.54-3.91,9.54Z"/><path class="cls-1" d="M702,180v-.08a15,15,0,0,1,15.34-15.21c5.55,0,8.87,1.85,11.6,4.54L724.85,174c-2.27-2.06-4.58-3.32-7.52-3.32-5,0-8.53,4.12-8.53,9.16v.08c0,5,3.49,9.25,8.53,9.25,3.36,0,5.42-1.34,7.73-3.45l4.12,4.16a15,15,0,0,1-12.06,5.25A14.85,14.85,0,0,1,702,180Z"/><path class="cls-1" d="M755,165h6l12.61,29.63h-6.77L764.1,188H751.66l-2.69,6.6h-6.6Zm6.81,17.31-3.91-9.54L754,182.28Z"/><path class="cls-1" d="M788.58,165.18h11.47c9.25,0,15.63,6.35,15.63,14.62v.08c0,8.28-6.39,14.71-15.63,14.71H788.58Zm6.47,5.84v17.73h5c5.29,0,8.87-3.57,8.87-8.78v-.08a8.45,8.45,0,0,0-8.87-8.87Z"/><path class="cls-1" d="M832.17,165.18h22.19v5.76H838.6v6h13.87v5.76H838.6v6.18h16v5.76h-22.4Z"/><path class="cls-1" d="M871.51,165.18h7l7.73,12.44,7.73-12.44h7v29.42h-6.43v-19.2L886.21,188H886l-8.19-12.44v19.08h-6.34Z"/><path class="cls-1" d="M927,183l-11.3-17.82h7.56l7,11.81,7.14-11.81h7.35l-11.3,17.69v11.72H927Z"/><path class="cls-2" d="M338.79,127.59a51.05,51.05,0,0,1-14.69,2.07,49.8,49.8,0,0,1-17.93-3.07A40.32,40.32,0,0,1,292.45,118a37.72,37.72,0,0,1-8.8-13,42.73,42.73,0,0,1-3.1-16.43,44.8,44.8,0,0,1,3-16.54A37.06,37.06,0,0,1,292,59.12a38.53,38.53,0,0,1,13.25-8.47,47.41,47.41,0,0,1,17.4-3,50.89,50.89,0,0,1,9.3.8,44.81,44.81,0,0,1,8,2.21,37.63,37.63,0,0,1,12.23,7.61l-4.81,7.41a4.48,4.48,0,0,1-2.88,2.16,5.26,5.26,0,0,1-3.87-.89q-2-1.22-3.9-2.19A29.94,29.94,0,0,0,332.57,63a28.48,28.48,0,0,0-4.7-1.11,39.51,39.51,0,0,0-5.87-.39,25.55,25.55,0,0,0-10.13,1.94A21.68,21.68,0,0,0,304.15,69a24.51,24.51,0,0,0-4.9,8.52,34,34,0,0,0-1.72,11.12,34.9,34.9,0,0,0,1.88,11.87,24.7,24.7,0,0,0,5.31,8.83,22.63,22.63,0,0,0,8.22,5.48,31.41,31.41,0,0,0,17.76,1.08,35.55,35.55,0,0,0,6.11-2.19v-13.5h-9.08a3.53,3.53,0,0,1-2.52-.86,2.87,2.87,0,0,1-.91-2.19V87.89h27.56V121A43,43,0,0,1,338.79,127.59Z"/><path class="cls-2" d="M361.33,128.78v-57h9a4.73,4.73,0,0,1,3.21.83,5.25,5.25,0,0,1,1.27,2.88l.77,5.7a25.34,25.34,0,0,1,6.28-7.69,13,13,0,0,1,8.33-2.82,10.24,10.24,0,0,1,6.31,1.83l-1,11.29a2.56,2.56,0,0,1-.86,1.52,2.67,2.67,0,0,1-1.58.42,18.52,18.52,0,0,1-2.54-.25,21,21,0,0,0-3.1-.25,9.39,9.39,0,0,0-6.67,2.3,18.21,18.21,0,0,0-4.18,6.39v34.92Z"/><path class="cls-2" d="M438.42,128.78a7.1,7.1,0,0,1-3.29-.61,4.49,4.49,0,0,1-1.85-2.54l-1.22-3.6a49.65,49.65,0,0,1-4.18,3.29,25,25,0,0,1-4.21,2.38,22.38,22.38,0,0,1-4.65,1.47,27.57,27.57,0,0,1-5.45.5,22.34,22.34,0,0,1-6.86-1,14.91,14.91,0,0,1-5.34-3,13,13,0,0,1-3.46-4.9,17.49,17.49,0,0,1-1.22-6.75,13.63,13.63,0,0,1,1.6-6.28,15.59,15.59,0,0,1,5.51-5.7,35.41,35.41,0,0,1,10.4-4.29,71.57,71.57,0,0,1,16.3-1.94V92.93q0-5.37-2.27-7.89a8.34,8.34,0,0,0-6.53-2.52,15.87,15.87,0,0,0-5.26.75,25.83,25.83,0,0,0-3.68,1.6l-3,1.6a6.65,6.65,0,0,1-3.21.75,4.37,4.37,0,0,1-2.68-.8,7.32,7.32,0,0,1-1.8-1.91l-2.71-4.87a34.14,34.14,0,0,1,11.12-6.78,37.83,37.83,0,0,1,13.17-2.24,23.62,23.62,0,0,1,9.1,1.66,19.45,19.45,0,0,1,6.81,4.62A20.26,20.26,0,0,1,443.9,84a26,26,0,0,1,1.49,9v35.86Zm-20.09-9.41a15,15,0,0,0,6.58-1.36,20.24,20.24,0,0,0,5.59-4.18V105a63.32,63.32,0,0,0-9.3.94,23.9,23.9,0,0,0-5.89,1.8,7.55,7.55,0,0,0-3.1,2.49,5.55,5.55,0,0,0-.91,3.07q0,3.32,1.85,4.7A8.49,8.49,0,0,0,418.33,119.38Z"/><path class="cls-2" d="M495.84,84.46a6.16,6.16,0,0,1-1.33,1.36,3.22,3.22,0,0,1-1.88.47,4,4,0,0,1-2.13-.64q-1-.64-2.35-1.38A19.61,19.61,0,0,0,485,82.88a13.94,13.94,0,0,0-4.54-.64,13.28,13.28,0,0,0-5.95,1.24,11.13,11.13,0,0,0-4.18,3.57,16.11,16.11,0,0,0-2.46,5.64,31.86,31.86,0,0,0-.8,7.47q0,8.74,3.51,13.39a11.38,11.38,0,0,0,9.6,4.65,15.91,15.91,0,0,0,3.62-.36,12.76,12.76,0,0,0,2.66-.91,10.47,10.47,0,0,0,2-1.22q.83-.66,1.58-1.22a9.34,9.34,0,0,1,1.49-.91,3.84,3.84,0,0,1,1.69-.36,3.26,3.26,0,0,1,2.77,1.33l4.37,5.53a26.07,26.07,0,0,1-5.2,4.68,26.7,26.7,0,0,1-5.73,2.93,28.92,28.92,0,0,1-6,1.49,44.57,44.57,0,0,1-6,.42,25.59,25.59,0,0,1-10-2,23.79,23.79,0,0,1-8.24-5.73,27.51,27.51,0,0,1-5.62-9.24,35.15,35.15,0,0,1-2.07-12.51,35.85,35.85,0,0,1,1.83-11.62,26.39,26.39,0,0,1,5.37-9.3,24.73,24.73,0,0,1,8.77-6.17,30.47,30.47,0,0,1,12.09-2.24A29,29,0,0,1,491,73,27.58,27.58,0,0,1,499.83,79Z"/><path class="cls-2" d="M528.36,70.85a28.39,28.39,0,0,1,10.1,1.74,22.39,22.39,0,0,1,8,5.06,22.8,22.8,0,0,1,5.2,8.16,30.73,30.73,0,0,1,1.85,11,19.53,19.53,0,0,1-.17,2.82,5,5,0,0,1-.55,1.77,2,2,0,0,1-1.05.91,5,5,0,0,1-1.71.25H515.74q.72,8,4.57,11.73A13.93,13.93,0,0,0,530.4,118a17.71,17.71,0,0,0,5.45-.75,26.24,26.24,0,0,0,4-1.66L543,114a5.93,5.93,0,0,1,2.79-.75,3.26,3.26,0,0,1,2.77,1.33L553,120.1a24.1,24.1,0,0,1-5.37,4.68,28.84,28.84,0,0,1-6.09,2.93,32.53,32.53,0,0,1-6.36,1.49,48.3,48.3,0,0,1-6.2.42,31.16,31.16,0,0,1-11.15-2,25.27,25.27,0,0,1-9-5.81,27.21,27.21,0,0,1-6.06-9.54,36.39,36.39,0,0,1-2.21-13.22,31.25,31.25,0,0,1,1.91-11,25.74,25.74,0,0,1,14.25-15A28.82,28.82,0,0,1,528.36,70.85Zm.28,10.73q-5.48,0-8.58,3.13a15.82,15.82,0,0,0-4,8.83h23.79a16,16,0,0,0-.64-4.54,10.55,10.55,0,0,0-2-3.82,9.79,9.79,0,0,0-3.49-2.63A12,12,0,0,0,528.63,81.58Z"/><path class="cls-2" d="M657.89,128.78H641.18V94.2H605.82v34.58H589.11V48.49h16.71V82.58h35.36V48.49h16.71Z"/><path class="cls-2" d="M695.27,70.85a31.94,31.94,0,0,1,11.67,2,25.14,25.14,0,0,1,14.83,15.05,34.44,34.44,0,0,1,2,12.23,34.66,34.66,0,0,1-2,12.26A26.06,26.06,0,0,1,716,121.7a25.45,25.45,0,0,1-9,5.87,31.94,31.94,0,0,1-11.67,2,32.32,32.32,0,0,1-11.76-2,25.4,25.4,0,0,1-9-5.87,26.38,26.38,0,0,1-5.84-9.27,34.24,34.24,0,0,1-2.07-12.26,34,34,0,0,1,2.07-12.23,26.15,26.15,0,0,1,5.84-9.21,25.62,25.62,0,0,1,9-5.84A32.32,32.32,0,0,1,695.27,70.85Zm0,47.31q6.53,0,9.68-4.51t3.15-13.42q0-8.85-3.15-13.36t-9.68-4.51q-6.7,0-9.85,4.51t-3.15,13.36q0,8.91,3.15,13.42T695.27,118.16Z"/><path class="cls-2" d="M730.57,147.21V71.73H740a3.7,3.7,0,0,1,3.82,2.66L745,79.2a33.89,33.89,0,0,1,3.65-3.46A23.61,23.61,0,0,1,752.76,73a22.23,22.23,0,0,1,4.76-1.77,22.8,22.8,0,0,1,5.53-.64,18.28,18.28,0,0,1,8.44,2,18.88,18.88,0,0,1,6.61,5.7,28.31,28.31,0,0,1,4.32,9.16A45.22,45.22,0,0,1,784,99.84a38.77,38.77,0,0,1-1.74,11.87,28.91,28.91,0,0,1-5,9.43,22.9,22.9,0,0,1-7.72,6.23,22.25,22.25,0,0,1-10,2.24,20.06,20.06,0,0,1-7.88-1.38,19.76,19.76,0,0,1-5.78-3.76v22.74ZM757.8,82.52a13.22,13.22,0,0,0-6.78,1.6,19.47,19.47,0,0,0-5.17,4.59v25a12.17,12.17,0,0,0,4.68,3.49,14.54,14.54,0,0,0,5.39,1,11.83,11.83,0,0,0,5-1.05,10,10,0,0,0,3.9-3.29,16.59,16.59,0,0,0,2.52-5.73,34.08,34.08,0,0,0,.89-8.3,37.4,37.4,0,0,0-.75-8.08,16.15,16.15,0,0,0-2.1-5.37,8.11,8.11,0,0,0-3.29-3A10,10,0,0,0,757.8,82.52Z"/><path class="cls-2" d="M791,147.21V71.73h9.41a3.7,3.7,0,0,1,3.82,2.66l1.16,4.81A33.89,33.89,0,0,1,809,75.75,23.61,23.61,0,0,1,813.18,73a22.23,22.23,0,0,1,4.76-1.77,22.8,22.8,0,0,1,5.53-.64,18.28,18.28,0,0,1,8.44,2,18.88,18.88,0,0,1,6.61,5.7,28.31,28.31,0,0,1,4.32,9.16,45.22,45.22,0,0,1,1.55,12.39,38.77,38.77,0,0,1-1.74,11.87,28.91,28.91,0,0,1-5,9.43,22.9,22.9,0,0,1-7.72,6.23,22.25,22.25,0,0,1-10,2.24,20.06,20.06,0,0,1-7.88-1.38,19.76,19.76,0,0,1-5.78-3.76v22.74Zm27.22-64.68a13.22,13.22,0,0,0-6.78,1.6,19.47,19.47,0,0,0-5.17,4.59v25a12.17,12.17,0,0,0,4.68,3.49,14.54,14.54,0,0,0,5.39,1,11.83,11.83,0,0,0,5-1.05,10,10,0,0,0,3.9-3.29,16.59,16.59,0,0,0,2.52-5.73,34.08,34.08,0,0,0,.89-8.3,37.4,37.4,0,0,0-.75-8.08,16.15,16.15,0,0,0-2.1-5.37,8.11,8.11,0,0,0-3.29-3A10,10,0,0,0,818.21,82.52Z"/><path class="cls-2" d="M876.27,70.85a28.39,28.39,0,0,1,10.1,1.74,22.39,22.39,0,0,1,8,5.06,22.8,22.8,0,0,1,5.2,8.16,30.73,30.73,0,0,1,1.85,11,19.53,19.53,0,0,1-.17,2.82,5,5,0,0,1-.55,1.77,2,2,0,0,1-1.05.91,5,5,0,0,1-1.71.25H863.65q.72,8,4.57,11.73a13.93,13.93,0,0,0,10.1,3.71,17.71,17.71,0,0,0,5.45-.75,26.24,26.24,0,0,0,4-1.66L891,114a5.93,5.93,0,0,1,2.79-.75,3.26,3.26,0,0,1,2.77,1.33l4.43,5.53a24.1,24.1,0,0,1-5.37,4.68,28.84,28.84,0,0,1-6.09,2.93,32.53,32.53,0,0,1-6.36,1.49,48.3,48.3,0,0,1-6.2.42,31.16,31.16,0,0,1-11.15-2,25.27,25.27,0,0,1-9-5.81,27.21,27.21,0,0,1-6.06-9.54,36.39,36.39,0,0,1-2.21-13.22,31.25,31.25,0,0,1,1.91-11,25.74,25.74,0,0,1,14.25-15A28.82,28.82,0,0,1,876.27,70.85Zm.28,10.73q-5.48,0-8.58,3.13a15.82,15.82,0,0,0-4,8.83h23.79a16,16,0,0,0-.64-4.54,10.55,10.55,0,0,0-2-3.82,9.79,9.79,0,0,0-3.49-2.63A12,12,0,0,0,876.54,81.58Z"/><path class="cls-2" d="M908.26,128.78v-57h9a4.73,4.73,0,0,1,3.21.83,5.25,5.25,0,0,1,1.27,2.88l.77,5.7a25.34,25.34,0,0,1,6.28-7.69,13,13,0,0,1,8.33-2.82,10.24,10.24,0,0,1,6.31,1.83l-1,11.29a2.56,2.56,0,0,1-.86,1.52,2.67,2.67,0,0,1-1.58.42,18.52,18.52,0,0,1-2.54-.25,21,21,0,0,0-3.1-.25,9.39,9.39,0,0,0-6.67,2.3,18.21,18.21,0,0,0-4.18,6.39v34.92Z"/><polygon class="cls-3" points="168 157.33 211 182.04 211 134.06 168 109.25 168 157.33"/><polygon class="cls-4" points="105.66 49.33 211 110.25 211 61.49 105.78 0.01 105.66 49.33"/><polygon class="cls-5" points="168 157.38 106 193.37 106 242.67 211 182.03 211 182.04 168 157.33 168 157.38"/><polygon class="cls-6" points="0.22 60.66 43.28 85.31 106 49.3 106 49.31 105.71 49.33 105.52 0.01 105.42 0 0.22 60.66"/><polygon class="cls-7" points="0 182.05 0 182.03 105.53 242.71 106 242.67 106 193.37 105.65 193.41 43.09 157.38 42.89 157.35 0 182.05"/><polygon class="cls-8" points="0 60.68 0 182.05 43 157.35 43 85.33 42.98 85.31 0.12 60.66 0 60.68"/></g></g></svg>